<svg width="64" height="9" viewBox="0 0 64 9" fill="none" xmlns="http://www.w3.org/2000/svg">
<path d="M12.068 8.484V9H9.392L8.552 7.092H4.352L3.512 9H0.836V8.484H2.228L5.696 0.611999H7.208L10.676 8.484H12.068ZM7.976 5.784L6.452 2.328L4.928 5.784H7.976ZM12.0703 8.484V0.611999H13.4863L18.3583 6.876V0.611999H19.7743V8.484H20.9383V9H18.2383L13.4863 2.88V9H10.9062V8.484H12.0703ZM30.0215 8.484V9H20.9375V8.484H23.8415C23.1455 8.132 22.5895 7.616 22.1735 6.936C21.7655 6.256 21.5615 5.488 21.5615 4.632C21.5615 3.408 21.9855 2.4 22.8335 1.608C23.6815 0.808 24.7095 0.408 25.9175 0.408C27.1335 0.408 28.1415 0.76 28.9415 1.464L28.1855 2.544C27.8575 2.264 27.5255 2.072 27.1895 1.968C26.8615 1.856 26.4775 1.8 26.0375 1.8C25.1815 1.8 24.4655 2.056 23.8895 2.568C23.3215 3.08 23.0375 3.78 23.0375 4.668C23.0375 5.556 23.3175 6.272 23.8775 6.816C24.4375 7.352 25.1135 7.62 25.9055 7.62C26.7055 7.62 27.3735 7.448 27.9095 7.104V4.8H29.3255V7.668C29.0295 7.996 28.6695 8.268 28.2455 8.484H30.0215ZM39.2355 8.484V9H30.0195V8.484H32.5035C31.5515 7.82 31.0755 6.768 31.0755 5.328V0.611999H32.4915V5.268C32.4915 6.036 32.6835 6.644 33.0675 7.092C33.4515 7.54 33.9715 7.764 34.6275 7.764C35.2835 7.764 35.8035 7.54 36.1875 7.092C36.5715 6.644 36.7635 6.036 36.7635 5.268V0.611999H38.1795V5.328C38.1795 6.776 37.6995 7.828 36.7395 8.484H39.2355ZM46.8025 8.484V9H39.2305V8.484H40.3945V0.611999H41.8105V7.656H45.6385V8.484H46.8025ZM56.0953 8.484V9H53.4193L52.5793 7.092H48.3793L47.5393 9H44.8633V8.484H46.2553L49.7233 0.611999H51.2353L54.7033 8.484H56.0953ZM52.0033 5.784L50.4793 2.328L48.9553 5.784H52.0033ZM63.9696 8.484V9H61.3776L59.3736 6.18H57.5136V9H54.9336V8.484H56.0976V0.611999H59.2176C60.4976 0.611999 61.4136 0.827999 61.9656 1.26C62.5176 1.692 62.7936 2.384 62.7936 3.336C62.7936 4.72 62.1896 5.592 60.9816 5.952L62.8056 8.484H63.9696ZM59.2776 4.896C60.0776 4.896 60.6216 4.772 60.9096 4.524C61.1976 4.276 61.3416 3.88 61.3416 3.336C61.3416 2.784 61.1936 2.408 60.8976 2.208C60.6016 2 60.0736 1.896 59.3136 1.896H57.5136V4.896H59.2776Z" fill="black"/>
</svg>
