<svg width="75" height="11" viewBox="0 0 75 11" fill="none" xmlns="http://www.w3.org/2000/svg">
<path d="M13.746 10.398V11H10.624L9.644 8.774H4.744L3.764 11H0.642V10.398H2.266L6.312 1.214H8.076L12.122 10.398H13.746ZM8.972 7.248L7.194 3.216L5.416 7.248H8.972ZM13.7486 10.398V1.214H15.4006L21.0846 8.522V1.214H22.7366V10.398H24.0946V11H20.9446L15.4006 3.86V11H12.3906V10.398H13.7486ZM34.6918 10.398V11H24.0938V10.398H27.4818C26.6698 9.98733 26.0211 9.38533 25.5358 8.592C25.0598 7.79867 24.8218 6.90267 24.8218 5.904C24.8218 4.476 25.3164 3.3 26.3058 2.376C27.2951 1.44267 28.4944 0.976 29.9038 0.976C31.3224 0.976 32.4984 1.38667 33.4318 2.208L32.5498 3.468C32.1671 3.14133 31.7798 2.91733 31.3878 2.796C31.0051 2.66533 30.5571 2.6 30.0438 2.6C29.0451 2.6 28.2098 2.89867 27.5378 3.496C26.8751 4.09333 26.5438 4.91 26.5438 5.946C26.5438 6.982 26.8704 7.81733 27.5238 8.452C28.1771 9.07733 28.9658 9.39 29.8898 9.39C30.8231 9.39 31.6024 9.18933 32.2278 8.788V6.1H33.8798V9.446C33.5344 9.82867 33.1144 10.146 32.6198 10.398H34.6918ZM45.4415 10.398V11H34.6895V10.398H37.5875C36.4768 9.62333 35.9215 8.396 35.9215 6.716V1.214H37.5735V6.646C37.5735 7.542 37.7975 8.25133 38.2455 8.774C38.6935 9.29667 39.3001 9.558 40.0655 9.558C40.8308 9.558 41.4375 9.29667 41.8855 8.774C42.3335 8.25133 42.5575 7.542 42.5575 6.646V1.214H44.2095V6.716C44.2095 8.40533 43.6495 9.63267 42.5295 10.398H45.4415ZM54.2695 10.398V11H45.4355V10.398H46.7935V1.214H48.4455V9.432H52.9115V10.398H54.2695ZM65.1112 10.398V11H61.9892L61.0092 8.774H56.1092L55.1292 11H52.0072V10.398H53.6312L57.6772 1.214H59.4412L63.4872 10.398H65.1112ZM60.3372 7.248L58.5592 3.216L56.7812 7.248H60.3372ZM74.2979 10.398V11H71.2739L68.9359 7.71H66.7659V11H63.7559V10.398H65.1139V1.214H68.7539C70.2472 1.214 71.3159 1.466 71.9599 1.97C72.6039 2.474 72.9259 3.28133 72.9259 4.392C72.9259 6.00667 72.2212 7.024 70.8119 7.444L72.9399 10.398H74.2979ZM68.8239 6.212C69.7572 6.212 70.3919 6.06733 70.7279 5.778C71.0639 5.48867 71.2319 5.02667 71.2319 4.392C71.2319 3.748 71.0592 3.30933 70.7139 3.076C70.3685 2.83333 69.7525 2.712 68.8659 2.712H66.7659V6.212H68.8239Z" fill="white"/>
</svg>
