<svg width="120" height="21" viewBox="0 0 120 21" fill="none" xmlns="http://www.w3.org/2000/svg">
<rect width="120" height="21" rx="2" fill="#00587A"/>
<path d="M25.096 13.527V14H17V13.527H19.442C18.8627 13.1823 18.4043 12.713 18.067 12.119C17.737 11.525 17.572 10.854 17.572 10.106C17.572 8.97667 17.9607 8.03067 18.738 7.268C19.5227 6.50533 20.509 6.124 21.697 6.124C22.8923 6.124 23.8897 6.564 24.689 7.444L23.864 8.346C23.4973 7.994 23.149 7.74833 22.819 7.609C22.4963 7.46967 22.115 7.4 21.675 7.4C20.8977 7.4 20.245 7.653 19.717 8.159C19.189 8.65767 18.925 9.29933 18.925 10.084C18.925 10.8613 19.1853 11.514 19.706 12.042C20.234 12.5627 20.8573 12.823 21.576 12.823C22.0233 12.823 22.4083 12.7497 22.731 12.603C23.0537 12.449 23.391 12.207 23.743 11.877L24.579 12.735C24.2563 13.087 23.9483 13.351 23.655 13.527H25.096ZM26.1666 13.527V6.311H27.4646V13.527H28.5316V14H25.0996V13.527H26.1666ZM35.1704 13.527V14H28.5264V13.527H31.1994V7.499H28.8674V6.311H34.8294V7.499H32.4974V13.527H35.1704ZM37.937 13.527V10.964L35.077 6.311H36.496L38.597 9.809L40.698 6.311H42.117L39.257 10.964V13.527H42.029V14H35.165V13.527H37.937ZM45.0433 13.527V14H42.0293V13.527H45.0433ZM54.2879 13.527V14H50.3169V15.342H49.0189V14H45.0479V13.527H47.5559C46.9619 13.175 46.4889 12.702 46.1369 12.108C45.7922 11.5067 45.6199 10.8357 45.6199 10.095C45.6199 8.96567 46.0085 8.02333 46.7859 7.268C47.5632 6.50533 48.5239 6.124 49.6679 6.124C50.8119 6.124 51.7725 6.50533 52.5499 7.268C53.3272 8.02333 53.7159 8.96567 53.7159 10.095C53.7159 10.8283 53.5399 11.4993 53.1879 12.108C52.8432 12.7093 52.3702 13.1823 51.7689 13.527H54.2879ZM49.0189 11.58H50.3169V12.812C50.9255 12.6653 51.4205 12.3427 51.8019 11.844C52.1905 11.338 52.3849 10.7293 52.3849 10.018C52.3849 9.29933 52.1209 8.66867 51.5929 8.126C51.0722 7.58333 50.4305 7.312 49.6679 7.312C48.9052 7.312 48.2599 7.58333 47.7319 8.126C47.2112 8.66867 46.9509 9.29933 46.9509 10.018C46.9509 10.7293 47.1415 11.338 47.5229 11.844C47.9115 12.3427 48.4102 12.6653 49.0189 12.812V11.58ZM62.7341 13.527V14H54.2861V13.527H56.5631C55.6905 12.9183 55.2541 11.954 55.2541 10.634V6.311H56.5521V10.579C56.5521 11.283 56.7281 11.8403 57.0801 12.251C57.4321 12.6617 57.9088 12.867 58.5101 12.867C59.1115 12.867 59.5881 12.6617 59.9401 12.251C60.2921 11.8403 60.4681 11.283 60.4681 10.579V6.311H61.7661V10.634C61.7661 11.9613 61.3261 12.9257 60.4461 13.527H62.7341ZM63.7965 13.527V6.311H65.0945V13.527H66.1615V14H62.7295V13.527H63.7965ZM66.6733 13.527V12.999L71.1503 7.532V7.499H66.8163V6.311H72.9543V7.323L68.4883 12.768V12.801H73.0203V13.527H74.0873V14H65.6062V13.527H66.6733Z" fill="white"/>
<path d="M90 0H118C119.105 0 120 0.895431 120 2V19C120 20.1046 119.105 21 118 21H90V0Z" fill="#2A2E35"/>
<path d="M103.833 10.5833C104.084 10.9182 104.403 11.1954 104.77 11.3959C105.138 11.5964 105.543 11.7157 105.961 11.7455C106.378 11.7754 106.796 11.7152 107.188 11.569C107.58 11.4229 107.936 11.1941 108.232 10.8983L109.982 9.14834C110.513 8.59825 110.807 7.86149 110.8 7.09675C110.794 6.33201 110.487 5.60047 109.946 5.0597C109.405 4.51893 108.674 4.21218 107.909 4.20554C107.144 4.19889 106.408 4.49288 105.857 5.02417L104.854 6.02167" stroke="white" stroke-width="2" stroke-linecap="round" stroke-linejoin="round"/>
<path d="M106.167 9.41667C105.916 9.08176 105.597 8.80465 105.23 8.60412C104.862 8.4036 104.457 8.28435 104.039 8.25448C103.622 8.2246 103.204 8.28479 102.812 8.43096C102.42 8.57714 102.064 8.80588 101.768 9.10167L100.018 10.8517C99.487 11.4018 99.1931 12.1385 99.1997 12.9033C99.2064 13.668 99.5131 14.3995 100.054 14.9403C100.595 15.4811 101.326 15.7878 102.091 15.7945C102.856 15.8011 103.592 15.5071 104.143 14.9758L105.14 13.9783" stroke="white" stroke-width="2" stroke-linecap="round" stroke-linejoin="round"/>
</svg>
