<svg width="242" height="28" viewBox="0 0 242 28" fill="none" xmlns="http://www.w3.org/2000/svg">
<path d="M39.664 3.024C40.168 3.024 40.552 3.108 40.816 3.276C41.104 3.42 41.248 3.636 41.248 3.924C41.248 4.044 41.212 4.2 41.14 4.392C41.068 4.608 40.96 4.776 40.816 4.896C40.696 4.992 40.504 5.124 40.24 5.292C39.856 5.508 39.544 5.748 39.304 6.012C39.088 6.276 38.896 6.684 38.728 7.236L34.336 22.716C34.24 23.028 34.192 23.328 34.192 23.616C34.192 23.88 34.228 24.108 34.3 24.3C34.396 24.468 34.516 24.672 34.66 24.912C34.756 25.032 34.84 25.164 34.912 25.308C34.984 25.428 35.02 25.56 35.02 25.704C35.02 25.752 34.996 25.872 34.948 26.064C34.852 26.376 34.624 26.604 34.264 26.748C33.928 26.892 33.436 26.964 32.788 26.964H24.328C23.824 26.964 23.428 26.88 23.14 26.712C22.876 26.544 22.744 26.316 22.744 26.028C22.744 25.884 22.78 25.728 22.852 25.56C22.924 25.392 23.02 25.248 23.14 25.128C23.284 24.984 23.404 24.888 23.5 24.84C23.62 24.768 23.704 24.708 23.752 24.66C24.136 24.444 24.448 24.204 24.688 23.94C24.928 23.676 25.132 23.268 25.3 22.716L28.036 12.996L18.712 24.552C17.944 25.488 17.32 26.136 16.84 26.496C16.384 26.832 15.856 27 15.256 27C14.68 27 14.224 26.82 13.888 26.46C13.576 26.076 13.288 25.44 13.024 24.552L9.64 13.428L6.976 22.752C6.88 23.064 6.832 23.364 6.832 23.652C6.832 23.94 6.868 24.18 6.94 24.372C7.036 24.564 7.168 24.768 7.336 24.984C7.552 25.296 7.66 25.548 7.66 25.74C7.66 25.788 7.636 25.908 7.588 26.1C7.492 26.436 7.276 26.676 6.94 26.82C6.604 26.94 6.1 27 5.428 27H2.44C1.936 27 1.54 26.916 1.252 26.748C0.988 26.58 0.856 26.352 0.856 26.064C0.856 25.92 0.892 25.764 0.964 25.596C1.06 25.332 1.216 25.128 1.432 24.984C1.648 24.84 1.78 24.756 1.828 24.732C2.212 24.492 2.524 24.252 2.764 24.012C3.004 23.748 3.208 23.328 3.376 22.752L7.768 7.2L7.192 5.292C7.072 4.932 7.012 4.584 7.012 4.248C7.012 3.816 7.144 3.504 7.408 3.312C7.696 3.12 8.128 3.024 8.704 3.024H14.284C15.004 3.024 15.532 3.18 15.868 3.492C16.228 3.804 16.516 4.344 16.732 5.112L20.332 17.064L30.088 4.932C30.712 4.164 31.324 3.66 31.924 3.42C32.524 3.156 33.316 3.024 34.3 3.024H39.664ZM47.7336 7.956C49.1256 7.956 50.1456 8.22 50.7936 8.748C51.4416 9.276 51.7656 9.996 51.7656 10.908C51.7656 11.46 51.6816 11.988 51.5136 12.492L48.2016 23.256C48.1296 23.544 48.0936 23.796 48.0936 24.012C48.0936 24.324 48.1536 24.576 48.2736 24.768C48.3936 24.936 48.5616 25.104 48.7776 25.272C48.9456 25.44 49.0656 25.584 49.1376 25.704C49.2096 25.8 49.2216 25.932 49.1736 26.1C49.0536 26.412 48.8136 26.64 48.4536 26.784C48.0936 26.928 47.5416 27 46.7976 27H38.5896C37.9656 27 37.5096 26.904 37.2216 26.712C36.9336 26.496 36.8376 26.22 36.9336 25.884C37.0296 25.596 37.2816 25.344 37.6896 25.128C38.0496 24.936 38.3496 24.708 38.5896 24.444C38.8296 24.18 39.0336 23.76 39.2016 23.184L42.3336 12.78C42.4056 12.564 42.4416 12.384 42.4416 12.24C42.4416 11.976 42.3816 11.772 42.2616 11.628C42.1416 11.46 41.9616 11.292 41.7216 11.124C41.4816 10.932 41.3136 10.764 41.2176 10.62C41.1216 10.476 41.1096 10.284 41.1816 10.044C41.3256 9.492 42.0816 9.012 43.4496 8.604C44.8176 8.172 46.2456 7.956 47.7336 7.956ZM50.1456 -2.14577e-06C51.0816 -2.14577e-06 51.8616 0.311998 52.4856 0.935999C53.1096 1.536 53.4216 2.28 53.4216 3.168C53.4216 3.792 53.2536 4.404 52.9176 5.004C52.6056 5.604 52.1496 6.096 51.5496 6.48C50.9736 6.84 50.3256 7.02 49.6056 7.02C48.6936 7.02 47.9256 6.72 47.3016 6.12C46.7016 5.496 46.3896 4.728 46.3656 3.816C46.3656 3.216 46.5216 2.628 46.8336 2.052C47.1456 1.452 47.5896 0.959998 48.1656 0.575999C48.7416 0.191998 49.4016 -2.14577e-06 50.1456 -2.14577e-06ZM67.5412 8.424C67.9972 8.424 68.3452 8.52 68.5852 8.712C68.8492 8.904 68.9812 9.168 68.9812 9.504C68.9812 9.6 68.9572 9.768 68.9092 10.008C68.5972 11.064 67.8772 11.592 66.7492 11.592H64.6612L61.9612 20.484C61.8412 20.844 61.7812 21.216 61.7812 21.6C61.7812 22.032 61.9012 22.332 62.1412 22.5C62.3812 22.668 62.7172 22.752 63.1492 22.752C63.5332 22.752 64.0132 22.704 64.5892 22.608C64.8772 22.536 65.1292 22.5 65.3452 22.5C65.5132 22.5 65.6332 22.56 65.7052 22.68C65.8012 22.776 65.8492 22.908 65.8492 23.076C65.8732 23.556 65.5132 24.144 64.7692 24.84C64.0492 25.512 63.0652 26.1 61.8172 26.604C60.5692 27.084 59.1892 27.324 57.6772 27.324C56.0452 27.324 54.7372 26.952 53.7532 26.208C52.7692 25.464 52.2772 24.444 52.2772 23.148C52.2772 22.548 52.3732 21.972 52.5652 21.42L54.8692 14.292C54.9892 13.884 55.0492 13.56 55.0492 13.32C55.0492 12.84 54.9292 12.432 54.6892 12.096C54.4732 11.76 54.1612 11.412 53.7532 11.052C53.3932 10.716 53.1412 10.44 52.9972 10.224C52.8532 9.984 52.8172 9.708 52.8892 9.396C52.9852 9.084 53.1892 8.844 53.5012 8.676C53.8132 8.508 54.3052 8.424 54.9772 8.424H56.9932L59.2612 6.156C60.0532 5.364 60.7732 4.812 61.4212 4.5C62.0932 4.188 62.9572 4.032 64.0132 4.032C65.5252 4.032 66.2812 4.608 66.2812 5.76C66.2812 6.12 66.2332 6.456 66.1372 6.768L65.6332 8.424H67.5412ZM88.986 22.032C88.938 22.128 88.914 22.272 88.914 22.464C88.914 22.632 88.95 22.764 89.022 22.86C89.118 22.956 89.238 23.004 89.382 23.004C89.67 23.004 89.91 22.884 90.102 22.644C90.318 22.38 90.462 22.248 90.534 22.248C90.654 22.248 90.75 22.332 90.822 22.5C90.894 22.644 90.93 22.824 90.93 23.04C90.954 23.736 90.726 24.42 90.246 25.092C89.766 25.74 89.058 26.28 88.122 26.712C87.21 27.12 86.106 27.324 84.81 27.324C83.226 27.324 81.966 26.964 81.03 26.244C80.094 25.5 79.614 24.516 79.59 23.292C79.59 22.404 79.806 21.408 80.238 20.304L82.218 15.12C82.338 14.808 82.398 14.556 82.398 14.364C82.398 14.052 82.29 13.812 82.074 13.644C81.882 13.452 81.642 13.356 81.354 13.356C80.898 13.356 80.43 13.572 79.95 14.004C79.494 14.412 79.122 15.084 78.834 16.02V15.948L76.566 23.256C76.494 23.544 76.458 23.796 76.458 24.012C76.458 24.324 76.518 24.576 76.638 24.768C76.758 24.936 76.926 25.104 77.142 25.272C77.31 25.44 77.43 25.584 77.502 25.704C77.574 25.8 77.586 25.932 77.538 26.1C77.418 26.412 77.178 26.64 76.818 26.784C76.458 26.928 75.906 27 75.162 27H66.954C66.33 27 65.874 26.904 65.586 26.712C65.298 26.496 65.202 26.22 65.298 25.884C65.394 25.596 65.646 25.344 66.054 25.128C66.414 24.936 66.714 24.708 66.954 24.444C67.194 24.18 67.398 23.76 67.566 23.184L73.038 5.22C73.11 5.004 73.146 4.824 73.146 4.68C73.146 4.416 73.074 4.2 72.93 4.032C72.81 3.864 72.642 3.696 72.426 3.528C72.186 3.336 72.006 3.168 71.886 3.024C71.79 2.88 71.778 2.688 71.85 2.448C71.994 1.896 72.75 1.416 74.118 1.008C75.486 0.599999 76.914 0.395999 78.402 0.395999C79.794 0.395999 80.814 0.659999 81.462 1.188C82.134 1.716 82.47 2.436 82.47 3.348C82.47 3.876 82.386 4.392 82.218 4.896L80.274 11.232C81.21 10.008 82.194 9.156 83.226 8.676C84.282 8.196 85.422 7.956 86.646 7.956C88.11 7.956 89.286 8.4 90.174 9.288C91.086 10.176 91.542 11.328 91.542 12.744C91.542 13.488 91.422 14.22 91.182 14.94L88.986 22.032ZM113.861 22.032C113.813 22.224 113.789 22.368 113.789 22.464C113.789 22.632 113.825 22.764 113.897 22.86C113.993 22.956 114.113 23.004 114.257 23.004C114.545 23.004 114.785 22.884 114.977 22.644C115.193 22.38 115.337 22.248 115.409 22.248C115.529 22.248 115.625 22.332 115.697 22.5C115.793 22.644 115.841 22.824 115.841 23.04C115.865 23.712 115.625 24.384 115.121 25.056C114.617 25.704 113.909 26.244 112.997 26.676C112.085 27.108 111.065 27.324 109.937 27.324C108.521 27.324 107.393 27.036 106.553 26.46C105.713 25.884 105.173 25.128 104.933 24.192C104.069 25.152 103.109 25.884 102.053 26.388C101.021 26.868 99.9646 27.108 98.8846 27.108C97.2046 27.108 95.7886 26.7 94.6366 25.884C93.5086 25.044 92.9446 23.88 92.9446 22.392C92.9446 21.72 93.0646 21.024 93.3046 20.304L95.6086 12.78C95.6806 12.564 95.7166 12.384 95.7166 12.24C95.7166 11.976 95.6566 11.772 95.5366 11.628C95.4166 11.46 95.2366 11.292 94.9966 11.124C94.7566 10.932 94.5886 10.764 94.4926 10.62C94.3966 10.476 94.3846 10.284 94.4566 10.044C94.6006 9.492 95.3566 9.012 96.7246 8.604C98.0926 8.172 99.5206 7.956 101.009 7.956C102.401 7.956 103.421 8.22 104.069 8.748C104.717 9.276 105.041 9.996 105.041 10.908C105.041 11.46 104.957 11.988 104.789 12.492L102.521 19.98C102.425 20.244 102.377 20.496 102.377 20.736C102.377 21.072 102.473 21.324 102.665 21.492C102.857 21.66 103.109 21.744 103.421 21.744C103.877 21.744 104.249 21.612 104.537 21.348C104.825 21.084 105.113 20.64 105.401 20.016L107.597 12.78C107.669 12.564 107.705 12.384 107.705 12.24C107.705 11.976 107.645 11.772 107.525 11.628C107.405 11.46 107.237 11.292 107.021 11.124C106.781 10.932 106.613 10.764 106.517 10.62C106.421 10.476 106.409 10.284 106.481 10.044C106.601 9.492 107.345 9.012 108.713 8.604C110.081 8.172 111.509 7.956 112.997 7.956C114.389 7.956 115.409 8.22 116.057 8.748C116.729 9.276 117.065 9.984 117.065 10.872C117.065 11.328 116.969 11.868 116.777 12.492L113.861 22.032ZM144.991 17.712C145.663 17.712 146.167 17.856 146.503 18.144C146.863 18.408 147.043 18.792 147.043 19.296C147.043 19.512 147.007 19.752 146.935 20.016L145.747 24.228C145.435 25.26 144.991 25.98 144.415 26.388C143.863 26.796 143.035 27 141.931 27H125.011C124.507 27 124.123 26.916 123.859 26.748C123.571 26.58 123.427 26.352 123.427 26.064C123.427 25.92 123.463 25.764 123.535 25.596C123.607 25.404 123.727 25.248 123.895 25.128C124.063 24.984 124.243 24.852 124.435 24.732C124.819 24.492 125.131 24.252 125.371 24.012C125.611 23.748 125.815 23.328 125.983 22.752L130.375 7.236C130.471 6.924 130.519 6.624 130.519 6.336C130.519 6.072 130.471 5.856 130.375 5.688C130.303 5.496 130.195 5.28 130.051 5.04C129.835 4.728 129.727 4.476 129.727 4.284C129.727 4.212 129.751 4.08 129.799 3.888C129.895 3.576 130.099 3.36 130.411 3.24C130.747 3.096 131.251 3.024 131.923 3.024H140.383C140.887 3.024 141.271 3.108 141.535 3.276C141.823 3.42 141.967 3.636 141.967 3.924C141.967 4.044 141.931 4.2 141.859 4.392C141.787 4.56 141.679 4.716 141.535 4.86C141.415 4.98 141.295 5.076 141.175 5.148C141.079 5.196 141.007 5.244 140.959 5.292C140.575 5.508 140.263 5.748 140.023 6.012C139.783 6.276 139.579 6.684 139.411 7.236L134.767 23.544H136.999C137.551 23.544 138.019 23.448 138.403 23.256C138.811 23.064 139.231 22.704 139.663 22.176L142.147 19.224C142.603 18.696 143.035 18.312 143.443 18.072C143.875 17.832 144.391 17.712 144.991 17.712ZM161.745 7.956C165.009 7.956 167.409 8.616 168.945 9.936C170.505 11.256 171.285 12.984 171.285 15.12C171.285 15.84 171.189 16.644 170.997 17.532C170.541 19.5 169.689 21.228 168.441 22.716C167.193 24.18 165.657 25.32 163.833 26.136C162.033 26.928 160.077 27.324 157.965 27.324C154.629 27.324 152.157 26.664 150.549 25.344C148.965 24 148.173 22.224 148.173 20.016C148.173 19.272 148.269 18.444 148.461 17.532C148.917 15.66 149.781 14.004 151.053 12.564C152.349 11.1 153.921 9.972 155.769 9.18C157.641 8.364 159.633 7.956 161.745 7.956ZM161.637 11.16C161.133 11.16 160.593 11.616 160.017 12.528C159.465 13.416 158.805 15.108 158.037 17.604C157.269 20.1 156.885 21.852 156.885 22.86C156.885 23.388 156.969 23.748 157.137 23.94C157.305 24.108 157.533 24.192 157.821 24.192C158.325 24.24 158.841 23.808 159.369 22.896C159.921 21.984 160.605 20.208 161.421 17.568C162.165 15.24 162.537 13.548 162.537 12.492C162.537 11.988 162.453 11.64 162.285 11.448C162.141 11.256 161.925 11.16 161.637 11.16ZM192.802 22.032C192.754 22.128 192.73 22.272 192.73 22.464C192.73 22.632 192.766 22.764 192.838 22.86C192.934 22.956 193.054 23.004 193.198 23.004C193.486 23.004 193.726 22.884 193.918 22.644C194.134 22.38 194.278 22.248 194.35 22.248C194.47 22.248 194.566 22.332 194.638 22.5C194.71 22.644 194.746 22.824 194.746 23.04C194.77 23.736 194.542 24.42 194.062 25.092C193.582 25.74 192.874 26.28 191.938 26.712C191.026 27.12 189.922 27.324 188.626 27.324C187.042 27.324 185.782 26.964 184.846 26.244C183.91 25.5 183.43 24.516 183.406 23.292C183.406 22.404 183.622 21.408 184.054 20.304L186.034 15.12C186.154 14.808 186.214 14.556 186.214 14.364C186.214 14.052 186.106 13.812 185.89 13.644C185.698 13.452 185.458 13.356 185.17 13.356C184.714 13.356 184.246 13.572 183.766 14.004C183.31 14.412 182.938 15.084 182.65 16.02V15.948L180.382 23.256C180.31 23.544 180.274 23.796 180.274 24.012C180.274 24.324 180.334 24.576 180.454 24.768C180.574 24.936 180.742 25.104 180.958 25.272C181.126 25.44 181.246 25.584 181.318 25.704C181.39 25.8 181.402 25.932 181.354 26.1C181.234 26.412 180.994 26.64 180.634 26.784C180.274 26.928 179.722 27 178.978 27H170.77C170.146 27 169.69 26.904 169.402 26.712C169.114 26.496 169.018 26.22 169.114 25.884C169.21 25.596 169.462 25.344 169.87 25.128C170.23 24.936 170.53 24.708 170.77 24.444C171.01 24.18 171.214 23.76 171.382 23.184L176.854 5.22C176.926 5.004 176.962 4.824 176.962 4.68C176.962 4.416 176.89 4.2 176.746 4.032C176.626 3.864 176.458 3.696 176.242 3.528C176.002 3.336 175.822 3.168 175.702 3.024C175.606 2.88 175.594 2.688 175.666 2.448C175.81 1.896 176.566 1.416 177.934 1.008C179.302 0.599999 180.73 0.395999 182.218 0.395999C183.61 0.395999 184.63 0.659999 185.278 1.188C185.95 1.716 186.286 2.436 186.286 3.348C186.286 3.876 186.202 4.392 186.034 4.896L184.09 11.232C185.026 10.008 186.01 9.156 187.042 8.676C188.098 8.196 189.238 7.956 190.462 7.956C191.926 7.956 193.102 8.4 193.99 9.288C194.902 10.176 195.358 11.328 195.358 12.744C195.358 13.488 195.238 14.22 194.998 14.94L192.802 22.032ZM209.145 7.956C211.905 7.956 214.113 8.472 215.769 9.504C217.425 10.512 218.253 12.06 218.253 14.148C218.253 14.94 218.109 15.84 217.821 16.848L216.345 21.816C216.321 21.912 216.309 22.032 216.309 22.176C216.309 22.56 216.465 22.752 216.777 22.752C217.065 22.752 217.305 22.632 217.497 22.392C217.713 22.128 217.857 21.996 217.929 21.996C218.049 21.996 218.145 22.08 218.217 22.248C218.313 22.416 218.361 22.608 218.361 22.824C218.385 23.472 218.133 24.132 217.605 24.804C217.101 25.476 216.417 26.028 215.553 26.46C214.689 26.892 213.741 27.108 212.709 27.108C211.461 27.108 210.393 26.88 209.505 26.424C208.617 25.968 208.005 25.296 207.669 24.408C206.949 25.272 206.097 25.944 205.113 26.424C204.129 26.88 203.073 27.108 201.945 27.108C200.673 27.108 199.605 26.868 198.741 26.388C197.877 25.884 197.229 25.248 196.797 24.48C196.389 23.688 196.185 22.86 196.185 21.996C196.185 21.612 196.221 21.24 196.293 20.88C196.677 19.224 197.505 17.976 198.777 17.136C200.073 16.296 201.609 15.876 203.385 15.876C205.377 15.876 207.333 16.188 209.253 16.812L210.153 14.436C210.465 13.428 210.621 12.648 210.621 12.096C210.597 11.52 210.405 11.088 210.045 10.8C209.685 10.512 209.133 10.368 208.389 10.368C208.533 10.752 208.605 11.148 208.605 11.556C208.605 12.444 208.269 13.212 207.597 13.86C206.925 14.508 205.965 14.832 204.717 14.832C203.541 14.832 202.617 14.58 201.945 14.076C201.297 13.548 200.973 12.9 200.973 12.132C200.973 10.932 201.645 9.936 202.989 9.144C204.333 8.352 206.385 7.956 209.145 7.956ZM207.129 18.864C206.457 18.864 205.905 19.128 205.473 19.656C205.065 20.16 204.861 20.712 204.861 21.312C204.861 21.696 204.945 22.008 205.113 22.248C205.305 22.488 205.569 22.608 205.905 22.608C206.217 22.608 206.553 22.488 206.913 22.248C207.297 21.984 207.573 21.6 207.741 21.096L208.497 18.972C208.089 18.9 207.633 18.864 207.129 18.864ZM237.524 7.956C238.868 7.956 239.936 8.364 240.728 9.18C241.544 9.996 241.952 11.004 241.952 12.204C241.952 12.66 241.904 13.08 241.808 13.464C241.568 14.448 241.112 15.204 240.44 15.732C239.768 16.26 238.964 16.524 238.028 16.524C237.116 16.524 236.42 16.308 235.94 15.876C235.484 15.444 235.076 14.868 234.716 14.148C234.524 13.74 234.344 13.44 234.176 13.248C234.008 13.056 233.816 12.96 233.6 12.96C233.36 12.96 233.144 13.056 232.952 13.248C232.784 13.44 232.628 13.776 232.484 14.256L229.712 23.256C229.664 23.376 229.64 23.556 229.64 23.796C229.64 24.108 229.724 24.372 229.892 24.588C230.084 24.78 230.336 24.972 230.648 25.164C230.936 25.356 231.128 25.512 231.224 25.632C231.32 25.752 231.356 25.908 231.332 26.1C231.284 26.412 231.104 26.64 230.792 26.784C230.504 26.928 230 27 229.28 27H220.064C219.44 27 218.996 26.904 218.732 26.712C218.444 26.496 218.336 26.22 218.408 25.884C218.504 25.596 218.756 25.344 219.164 25.128C219.524 24.936 219.824 24.708 220.064 24.444C220.304 24.18 220.508 23.76 220.676 23.184L223.88 12.78C223.928 12.66 223.952 12.492 223.952 12.276C223.952 12.012 223.892 11.808 223.772 11.664C223.676 11.52 223.508 11.34 223.268 11.124C223.028 10.932 222.86 10.764 222.764 10.62C222.668 10.476 222.656 10.284 222.728 10.044C222.872 9.492 223.628 9.012 224.996 8.604C226.364 8.172 227.792 7.956 229.28 7.956C230.264 7.956 231.08 8.184 231.728 8.64C232.376 9.072 232.796 9.696 232.988 10.512C234.14 8.808 235.652 7.956 237.524 7.956Z" fill="#5522DD"/>
</svg>
