<svg width="120" height="21" viewBox="0 0 120 21" fill="none" xmlns="http://www.w3.org/2000/svg">
<rect width="120" height="21" rx="2" fill="#00587A"/>
<path d="M24.524 13.527V14H17V13.527H18.067V6.311H20.707C21.873 6.311 22.7237 6.53467 23.259 6.982C23.7943 7.42933 24.062 8.11867 24.062 9.05C24.062 9.98133 23.787 10.6633 23.237 11.096C22.6943 11.5287 21.8583 11.745 20.729 11.745H19.365V13.527H24.524ZM20.872 10.568C21.5907 10.568 22.0783 10.4323 22.335 10.161C22.599 9.88233 22.731 9.479 22.731 8.951C22.731 8.41567 22.566 8.038 22.236 7.818C21.906 7.598 21.389 7.488 20.685 7.488H19.365V10.568H20.872ZM33.7485 13.527V14H31.2955L30.5255 12.251H26.6755L25.9055 14H23.4525V13.527H24.7285L27.9075 6.311H29.2935L32.4725 13.527H33.7485ZM29.9975 11.052L28.6005 7.884L27.2035 11.052H29.9975ZM40.9666 13.527V14H38.5906L36.7536 11.415H35.0486V14H32.6836V13.527H33.7506V6.311H36.6106C37.7839 6.311 38.6236 6.509 39.1296 6.905C39.6356 7.301 39.8886 7.93533 39.8886 8.808C39.8886 10.0767 39.3349 10.876 38.2276 11.206L39.8996 13.527H40.9666ZM36.6656 10.238C37.3989 10.238 37.8976 10.1243 38.1616 9.897C38.4256 9.66967 38.5576 9.30667 38.5576 8.808C38.5576 8.302 38.4219 7.95733 38.1506 7.774C37.8793 7.58333 37.3953 7.488 36.6986 7.488H35.0486V10.238H36.6656ZM49.9155 13.527V14H47.4625L46.6925 12.251H42.8425L42.0725 14H39.6195V13.527H40.8955L44.0745 6.311H45.4605L48.6395 13.527H49.9155ZM46.1645 11.052L44.7675 7.884L43.3705 11.052H46.1645ZM55.7916 13.527V14H48.8506V13.527H49.9176V6.311H51.2156V12.768H54.7246V13.527H55.7916ZM62.0221 13.527V14H55.0811V13.527H56.1481V6.311H57.4461V12.768H60.9551V13.527H62.0221ZM70.5405 13.527V14H68.0875L67.3175 12.251H63.4675L62.6975 14H60.2445V13.527H61.5205L64.6995 6.311H66.0855L69.2645 13.527H70.5405ZM66.7895 11.052L65.3925 7.884L63.9955 11.052H66.7895ZM68.8926 14V13.527H69.9486L72.2806 10.051L69.8276 6.311H71.4336L73.1496 8.907H73.2046L74.9206 6.311H76.5266L74.0736 10.051L76.3946 13.527H77.4616V14H75.0966L73.2046 11.107H73.1496L71.2576 14H68.8926Z" fill="white"/>
<path d="M90 0H118C119.105 0 120 0.895431 120 2V19C120 20.1046 119.105 21 118 21H90V0Z" fill="#2A2E35"/>
<path d="M103.833 10.5833C104.084 10.9182 104.403 11.1954 104.77 11.3959C105.138 11.5964 105.543 11.7157 105.961 11.7455C106.378 11.7754 106.796 11.7152 107.188 11.569C107.58 11.4229 107.936 11.1941 108.232 10.8983L109.982 9.14834C110.513 8.59825 110.807 7.86149 110.8 7.09675C110.794 6.33201 110.487 5.60047 109.946 5.0597C109.405 4.51893 108.674 4.21218 107.909 4.20554C107.144 4.19889 106.408 4.49288 105.857 5.02417L104.854 6.02167" stroke="white" stroke-width="2" stroke-linecap="round" stroke-linejoin="round"/>
<path d="M106.167 9.41667C105.916 9.08176 105.597 8.80465 105.23 8.60412C104.862 8.4036 104.457 8.28435 104.039 8.25448C103.622 8.2246 103.204 8.28479 102.812 8.43096C102.42 8.57714 102.064 8.80588 101.768 9.10167L100.018 10.8517C99.487 11.4018 99.1931 12.1385 99.1997 12.9033C99.2064 13.668 99.5131 14.3995 100.054 14.9403C100.595 15.4811 101.326 15.7878 102.091 15.7945C102.856 15.8011 103.592 15.5071 104.143 14.9758L105.14 13.9783" stroke="white" stroke-width="2" stroke-linecap="round" stroke-linejoin="round"/>
</svg>
